Sprint_08100001_forces_filt999Hz.mot
version=1
nRows=47
nColumns=19
inDegrees=yes
endheader
time	R_ground_force_vx	R_ground_force_vy	R_ground_force_vz	R_ground_force_px	R_ground_force_py	R_ground_force_pz	R_ground_torque_x	R_ground_torque_y	R_ground_torque_z	L_ground_force_vx	L_ground_force_vy	L_ground_force_vz	L_ground_force_px	L_ground_force_py	L_ground_force_pz	L_ground_torque_x	L_ground_torque_y	L_ground_torque_z	
2.927000	  0.000000	  0.000000	  0.000000	  0.202139	  0.000000	 -0.207233	  0.000000	  0.000000	  0.000000	  0.000000	  0.000000	  0.000000	  1.165101	  0.000000	 -0.364598	  0.000000	  0.000000	  0.000000
2.927500	  0.000000	  0.000000	  0.000000	  0.204590	  0.000000	 -0.206977	  0.000000	  0.000000	  0.000000	  0.000000	  0.000000	  0.000000	  1.162240	  0.000000	 -0.363844	  0.000000	  0.000000	  0.000000
2.928000	  0.000000	  0.000000	  0.000000	  0.207041	  0.000000	 -0.206721	  0.000000	  0.000000	  0.000000	  0.000000	  0.000000	  0.000000	  1.159379	  0.000000	 -0.363090	  0.000000	  0.000000	  0.000000
2.928500	  0.000000	  0.000000	  0.000000	  0.209492	  0.000000	 -0.206465	  0.000000	  0.000000	  0.000000	  0.000000	  0.000000	  0.000000	  1.156518	  0.000000	 -0.362337	  0.000000	  0.000000	  0.000000
2.929000	  0.000000	  0.000000	  0.000000	  0.211942	  0.000000	 -0.206209	  0.000000	  0.000000	  0.000000	  0.000000	  0.000000	  0.000000	  1.153656	  0.000000	 -0.361583	  0.000000	  0.000000	  0.000000
2.929500	  0.000000	  0.000000	  0.000000	  0.214393	  0.000000	 -0.205953	  0.000000	  0.000000	  0.000000	  0.000000	  0.000000	  0.000000	  1.150795	  0.000000	 -0.360830	  0.000000	  0.000000	  0.000000
2.930000	  0.000000	  0.000000	  0.000000	  0.303358	 -0.000000	 -0.238243	  0.000000	  0.000000	  0.000000	  0.000000	  0.000000	  0.000000	  1.147934	  0.000000	 -0.360076	  0.000000	  0.000000	  0.000000
2.930500	  0.000000	  0.000000	  0.000000	  0.392323	 -0.000000	 -0.270532	  0.000000	  0.000000	  0.000000	  0.000000	  0.000000	  0.000000	  1.144463	  0.000000	 -0.359046	  0.000000	  0.000000	  0.000000
2.931000	  0.000000	  0.000000	  0.000000	  0.481289	 -0.000000	 -0.302821	  0.000000	  0.000000	  0.000000	  0.000000	  0.000000	  0.000000	  1.140991	  0.000000	 -0.358017	  0.000000	  0.000000	  0.000000
2.931500	  0.000000	  0.000000	  0.000000	  0.570254	 -0.000000	 -0.335111	  0.000000	  0.000000	  0.000000	  0.000000	  0.000000	  0.000000	  1.137519	  0.000000	 -0.356987	  0.000000	  0.000000	  0.000000
2.932000	  0.000000	  0.000000	  0.000000	  0.659219	  0.000000	 -0.367400	  0.000000	  0.000000	  0.000000	  0.000000	  0.000000	  0.000000	  1.134047	  0.000000	 -0.355958	  0.000000	  0.000000	  0.000000
2.932500	  0.000000	  0.000000	  0.000000	  0.748184	  0.000000	 -0.399689	  0.000000	  0.000000	  0.000000	  0.000000	  0.000000	  0.000000	  1.130575	  0.000000	 -0.354928	  0.000000	  0.000000	  0.000000
2.933000	  0.000000	  0.000000	  0.000000	  0.837149	  0.000000	 -0.431979	  0.000000	  0.000000	  0.000000	  0.000000	  0.000000	  0.000000	  1.127103	  0.000000	 -0.353899	  0.000000	  0.000000	  0.000000
2.933500	-247.799588	422.890074	-112.972345	  0.926114	  0.000000	 -0.464268	  0.000000	-17.881299	  0.000000	  0.000000	  0.000000	  0.000000	  1.123631	  0.000000	 -0.352869	  0.000000	  0.000000	  0.000000
2.934000	-248.568738	423.820052	-113.162943	  1.015079	  0.000000	 -0.496557	  0.000000	-18.498847	  0.000000	  0.000000	  0.000000	  0.000000	  1.120159	  0.000000	 -0.351840	  0.000000	  0.000000	  0.000000
2.934500	-334.622262	672.066264	-128.612535	  1.000572	  0.000000	 -0.455354	  0.000000	-15.505309	  0.000000	  0.000000	  0.000000	  0.000000	  1.116687	  0.000000	 -0.350810	  0.000000	  0.000000	  0.000000
2.935000	-335.314789	673.301075	-128.803271	  1.001741	  0.000000	 -0.454525	  0.000000	-16.105103	  0.000000	  0.000000	  0.000000	  0.000000	  1.113215	  0.000000	 -0.349781	  0.000000	  0.000000	  0.000000
2.935500	-415.341423	955.269581	-158.443400	  0.952099	  0.000000	 -0.439774	  0.000000	-22.181477	  0.000000	  0.000000	  0.000000	  0.000000	  1.109207	  0.000000	 -0.349426	  0.000000	  0.000000	  0.000000
2.936000	-416.033616	956.961758	-158.863153	  0.952274	  0.000000	 -0.438937	  0.000000	-22.785962	  0.000000	  0.000000	  0.000000	  0.000000	  1.105198	  0.000000	 -0.349071	  0.000000	  0.000000	  0.000000
2.936500	-495.755409	1166.909206	-186.748386	  0.916458	  0.000000	 -0.441453	  0.000000	-37.349938	  0.000000	  0.000000	  0.000000	  0.000000	  1.101189	  0.000000	 -0.348716	  0.000000	  0.000000	  0.000000
2.937000	-496.523559	1168.143164	-186.939392	  0.916490	  0.000000	 -0.440937	  0.000000	-37.773951	  0.000000	  0.000000	  0.000000	  0.000000	  1.097180	  0.000000	 -0.348362	  0.000000	  0.000000	  0.000000
2.937500	-593.564417	1262.429473	-170.650297	  0.911417	  0.000000	 -0.446149	  0.000000	-59.218076	  0.000000	  0.000000	  0.000000	  0.000000	  1.093171	  0.000000	 -0.348007	  0.000000	  0.000000	  0.000000
2.938000	-594.408520	1263.205158	-170.459966	  0.911396	  0.000000	 -0.445925	  0.000000	-59.261463	  0.000000	  0.000000	  0.000000	  0.000000	  1.089162	  0.000000	 -0.347652	  0.000000	  0.000000	  0.000000
2.938500	-720.517713	1301.034485	-97.102867	  0.913084	  0.000000	 -0.443231	  0.000000	-76.792777	  0.000000	  0.000000	  0.000000	  0.000000	  1.085153	  0.000000	 -0.347297	  0.000000	  0.000000	  0.000000
2.939000	-721.742943	1301.199253	-96.454905	  0.913209	  0.000000	 -0.443224	  0.000000	-76.483439	  0.000000	  0.000000	  0.000000	  0.000000	  1.081145	  0.000000	 -0.346943	  0.000000	  0.000000	  0.000000
2.939500	-857.999575	1358.713011	  4.978497	  0.883667	  0.000000	 -0.426617	  0.000000	-75.211365	  0.000000	  0.000000	  0.000000	  0.000000	  1.077136	  0.000000	 -0.346588	  0.000000	  0.000000	  0.000000
2.940000	-859.224459	1359.182335	  5.778917	  0.883502	  0.000000	 -0.426426	  0.000000	-74.596250	  0.000000	  0.000000	  0.000000	  0.000000	  1.073127	  0.000000	 -0.346233	  0.000000	  0.000000	  0.000000
2.940500	-976.789422	1439.584924	 95.081711	  0.816811	  0.000000	 -0.402990	  0.000000	-49.077393	  0.000000	  0.000000	  0.000000	  0.000000	  1.068885	  0.000000	 -0.346055	  0.000000	  0.000000	  0.000000
2.941000	-977.861370	1440.206160	 95.729414	  0.816422	  0.000000	 -0.402775	  0.000000	-48.600997	  0.000000	  0.000000	  0.000000	  0.000000	  1.064644	  0.000000	 -0.345876	  0.000000	  0.000000	  0.000000
2.941500	-1048.658493	1511.149003	163.822620	  0.764800	  0.000000	 -0.381644	  0.000000	 -1.191183	  0.000000	  0.000000	  0.000000	  0.000000	  1.060403	  0.000000	 -0.345698	  0.000000	  0.000000	  0.000000
2.942000	-1049.196034	1511.464333	164.317607	  0.764605	  0.000000	 -0.381565	  0.000000	 -0.944018	  0.000000	  0.000000	  0.000000	  0.000000	  1.056161	  0.000000	 -0.345519	  0.000000	  0.000000	  0.000000
2.942500	-1039.579688	1532.969457	246.449027	  0.773663	  0.000000	 -0.360325	  0.000000	 54.107150	  0.000000	  0.000000	  0.000000	  0.000000	  1.051920	  0.000000	 -0.345341	  0.000000	  0.000000	  0.000000
2.943000	-1039.430234	1533.284003	247.020180	  0.773628	  0.000000	 -0.360252	  0.000000	 54.815602	  0.000000	  0.000000	  0.000000	  0.000000	  1.047679	  0.000000	 -0.345162	  0.000000	  0.000000	  0.000000
2.943500	-953.291411	1468.882955	350.590325	  0.823457	  0.000000	 -0.340893	  0.000000	 98.662706	  0.000000	  0.000000	  0.000000	  0.000000	  1.043437	  0.000000	 -0.344984	  0.000000	  0.000000	  0.000000
2.944000	-952.454962	1468.433723	351.466529	  0.823837	  0.000000	 -0.340998	  0.000000	100.214579	  0.000000	  0.000000	  0.000000	  0.000000	  1.039196	  0.000000	 -0.344805	  0.000000	  0.000000	  0.000000
2.944500	-807.722737	1354.595064	433.827082	  0.892122	  0.000000	 -0.337393	  0.000000	117.607722	  0.000000	  0.000000	  0.000000	  0.000000	  1.034954	  0.000000	 -0.344627	  0.000000	  0.000000	  0.000000
2.945000	-806.199295	1354.297529	434.474279	  0.892365	  0.000000	 -0.337513	  0.000000	119.464249	  0.000000	  0.000000	  0.000000	  0.000000	  1.030713	  0.000000	 -0.344448	  0.000000	  0.000000	  0.000000
2.945500	-595.396861	1304.394113	460.987787	  0.978115	  0.000000	 -0.355058	  0.000000	119.553321	  0.000000	  0.000000	  0.000000	  0.000000	  1.026923	  0.000000	 -0.344055	  0.000000	  0.000000	  0.000000
2.946000	-593.491603	1304.095634	461.100806	  0.978855	  0.000000	 -0.355092	  0.000000	121.294734	  0.000000	  0.000000	  0.000000	  0.000000	  1.023134	  0.000000	 -0.343661	  0.000000	  0.000000	  0.000000
2.946500	-322.722473	1366.040113	432.377618	  1.068017	  0.000000	 -0.381973	  0.000000	131.777776	  0.000000	  0.000000	  0.000000	  0.000000	  1.019344	  0.000000	 -0.343268	  0.000000	  0.000000	  0.000000
2.947000	-320.130225	1366.350989	432.032753	  1.068711	  0.000000	 -0.381930	  0.000000	133.163986	  0.000000	  0.000000	  0.000000	  0.000000	  1.015554	  0.000000	 -0.342874	  0.000000	  0.000000	  0.000000
2.947500	-38.069934	1483.991070	390.950064	  1.150936	  0.000000	 -0.400803	  0.000000	169.246389	  0.000000	  0.000000	  0.000000	  0.000000	  1.011765	  0.000000	 -0.342481	  0.000000	  0.000000	  0.000000
2.948000	-35.324757	1484.758661	390.681376	  1.151613	  0.000000	 -0.400554	  0.000000	170.700357	  0.000000	  0.000000	  0.000000	  0.000000	  1.007975	  0.000000	 -0.342087	  0.000000	  0.000000	  0.000000
2.948500	175.705532	1614.606848	393.849292	  1.209869	  0.000000	 -0.401684	  0.000000	203.932817	  0.000000	  0.000000	  0.000000	  0.000000	  1.004185	  0.000000	 -0.341694	  0.000000	  0.000000	  0.000000
2.949000	177.916989	1616.441454	393.809371	  1.209814	  0.000000	 -0.401264	  0.000000	205.066126	  0.000000	  0.000000	  0.000000	  0.000000	  1.000396	  0.000000	 -0.341300	  0.000000	  0.000000	  0.000000
2.949500	256.653239	1778.639401	463.047956	  1.226357	  0.000000	 -0.390307	  0.000000	200.921959	  0.000000	  0.000000	  0.000000	  0.000000	  0.996606	  0.000000	 -0.340907	  0.000000	  0.000000	  0.000000
2.950000	257.415448	1780.930618	463.618276	  1.225838	  0.000000	 -0.389769	  0.000000	202.173435	  0.000000	  0.000000	  0.000000	  0.000000	  0.992816	  0.000000	 -0.340514	  0.000000	  0.000000	  0.000000
